<svg width="120" height="120" viewBox="0 0 120 120" fill="none" xmlns="http://www.w3.org/2000/svg">
<path d="M60.0004 0.249786C26.8634 0.249786 0 27.1132 0 60.2501C0 89.9701 21.6313 114.583 49.9935 119.349V72.7678H35.5197V56.0051H49.9935V43.6448C49.9935 29.3034 58.7528 21.4881 71.5482 21.4881C77.6764 21.4881 82.9429 21.9448 84.4717 22.1459V37.1365L75.5972 37.1408C68.6401 37.1408 67.2988 40.4461 67.2988 45.2982V55.9965H83.8992L81.734 72.7593H67.2988V119.75C96.9852 116.137 120 90.897 120 60.233C120 27.1132 93.1366 0.249786 60.0004 0.249786Z" fill="white"/>
</svg>
