<svg width="120" height="120" viewBox="0 0 120 120" fill="none" xmlns="http://www.w3.org/2000/svg">
<path d="M71.4844 60C71.4844 66.3428 66.3428 71.4844 60 71.4844C53.6572 71.4844 48.5156 66.3428 48.5156 60C48.5156 53.6572 53.6572 48.5156 60 48.5156C66.3428 48.5156 71.4844 53.6572 71.4844 60Z" fill="white"/>
<path d="M86.8579 39.6808C86.3058 38.1848 85.4251 36.8307 84.2807 35.7193C83.1693 34.5749 81.8161 33.6942 80.3192 33.1421C79.1052 32.6706 77.2815 32.1094 73.9224 31.9565C70.2887 31.7908 69.1992 31.7551 60 31.7551C50.7999 31.7551 49.7104 31.7899 46.0776 31.9556C42.7185 32.1094 40.8939 32.6706 39.6808 33.1421C38.1839 33.6942 36.8298 34.5749 35.7193 35.7193C34.5749 36.8307 33.6942 38.1839 33.1412 39.6808C32.6697 40.8948 32.1085 42.7194 31.9556 46.0785C31.7899 49.7113 31.7542 50.8008 31.7542 60.0009C31.7542 69.2001 31.7899 70.2896 31.9556 73.9233C32.1085 77.2824 32.6697 79.1061 33.1412 80.3201C33.6942 81.817 34.574 83.1702 35.7184 84.2816C36.8298 85.426 38.183 86.3068 39.6799 86.8588C40.8939 87.3312 42.7185 87.8925 46.0776 88.0453C49.7104 88.2111 50.799 88.2458 59.9991 88.2458C69.2001 88.2458 70.2896 88.2111 73.9215 88.0453C77.2806 87.8925 79.1052 87.3312 80.3192 86.8588C83.324 85.6998 85.6989 83.3249 86.8579 80.3201C87.3294 79.1061 87.8906 77.2824 88.0444 73.9233C88.2101 70.2896 88.2449 69.2001 88.2449 60.0009C88.2449 50.8008 88.2101 49.7113 88.0444 46.0785C87.8915 42.7194 87.3303 40.8948 86.8579 39.6808ZM60 77.6917C50.2286 77.6917 42.3074 69.7714 42.3074 60C42.3074 50.2286 50.2286 42.3083 60 42.3083C69.7705 42.3083 77.6917 50.2286 77.6917 60C77.6917 69.7714 69.7705 77.6917 60 77.6917ZM78.3911 45.7434C76.1078 45.7434 74.2566 43.8922 74.2566 41.6089C74.2566 39.3256 76.1078 37.4744 78.3911 37.4744C80.6744 37.4744 82.5256 39.3256 82.5256 41.6089C82.5247 43.8922 80.6744 45.7434 78.3911 45.7434Z" fill="white"/>
<path d="M60 0C26.868 0 0 26.868 0 60C0 93.132 26.868 120 60 120C93.132 120 120 93.132 120 60C120 26.868 93.132 0 60 0ZM94.2453 74.2044C94.0787 77.872 93.4955 80.376 92.644 82.5677C90.8542 87.1957 87.1957 90.8542 82.5677 92.644C80.3769 93.4955 77.872 94.0778 74.2053 94.2453C70.5313 94.4128 69.3576 94.4531 60.0009 94.4531C50.6433 94.4531 49.4705 94.4128 45.7956 94.2453C42.1289 94.0778 39.624 93.4955 37.4332 92.644C35.1334 91.7789 33.0515 90.423 31.3303 88.6697C29.5779 86.9495 28.222 84.8666 27.3569 82.5677C26.5054 80.3769 25.9222 77.872 25.7556 74.2053C25.5862 70.5304 25.5469 69.3567 25.5469 60C25.5469 50.6433 25.5862 49.4696 25.7547 45.7956C25.9213 42.128 26.5036 39.624 27.355 37.4323C28.2202 35.1334 29.577 33.0505 31.3303 31.3303C33.0505 29.577 35.1334 28.2211 37.4323 27.356C39.624 26.5045 42.128 25.9222 45.7956 25.7547C49.4696 25.5872 50.6433 25.5469 60 25.5469C69.3567 25.5469 70.5304 25.5872 74.2044 25.7556C77.872 25.9222 80.376 26.5045 82.5677 27.355C84.8666 28.2202 86.9495 29.577 88.6707 31.3303C90.423 33.0515 91.7798 35.1334 92.644 37.4323C93.4964 39.624 94.0787 42.128 94.2462 45.7956C94.4138 49.4696 94.4531 50.6433 94.4531 60C94.4531 69.3567 94.4138 70.5304 94.2453 74.2044Z" fill="white"/>
</svg>
