<svg width="257" height="140" viewBox="0 0 257 140" fill="none" xmlns="http://www.w3.org/2000/svg">
<path d="M43.1384 10.1651C43.1564 10.1515 43.1818 10.1504 43.2156 10.1614C43.2476 10.1719 43.2864 10.1935 43.3319 10.2264C43.4217 10.2914 43.5362 10.3995 43.6738 10.552C43.9397 10.8469 44.2871 11.3029 44.6914 11.9292C45.4247 13.0649 46.3926 14.834 47.2366 17.1589C48.6459 20.9566 49.9513 27.3378 47.5825 33.8545C47.6038 33.7342 47.6257 33.6578 47.6426 33.6247C47.6565 33.7401 47.6814 33.8697 47.7119 34.015C47.8295 34.5896 48.0337 35.1782 48.2831 35.7999C49.3654 38.4799 51.0853 40.9313 53.1826 43.5182L53.1828 43.5188C53.3603 44.1633 53.4079 44.6308 53.3587 44.8993C53.2198 45.5482 52.9888 46.0516 52.7302 46.4048C51.4201 48.1914 49.6912 49.2022 48.1141 49.9282C47.9561 50.077 47.9243 49.9771 48.2403 49.6665C48.385 49.2123 48.4665 49.0362 48.3957 49.0557C48.4128 49.3066 48.7349 49.7858 49.0373 50.632C49.1903 50.996 49.3198 51.5038 49.357 52.1526C49.38 52.8413 49.1613 53.5342 48.6978 54.1478C47.3226 55.0869 45.8262 54.7517 44.9527 54.0559C45.2681 53.6834 45.7471 53.33 46.3297 53.0974C46.7818 53.3788 47.3116 53.7801 47.8335 54.3785C47.8838 54.4294 47.9322 54.4836 47.9786 54.5408C48.4549 55.1291 48.7082 56.0369 48.5909 57.1575C48.0789 58.6419 47.2308 59.4934 46.5168 59.8471C46.4929 59.8563 46.4342 59.8855 46.4244 59.8638C46.3717 59.9045 46.3787 60.1348 46.347 60.4905C46.326 61.3725 46.4938 62.4915 46.4306 63.8285C46.395 65.3206 45.7486 66.8671 44.4417 67.956C42.2167 69.3446 39.8422 69.2713 38.0425 68.9868C36.1597 68.1906 33.8026 68.4211 31.6155 68.7026C28.5072 69.1886 25.6247 70.2053 23.1224 71.3763C19.8148 72.9357 17.3141 74.6838 15.3582 76.5745C11.4874 80.3457 10.8238 83.9078 10.4983 83.8439C10.3832 83.8214 9.92757 80.0035 14.1025 75.2006C16.0329 72.9622 18.642 70.8183 22.0802 68.9746C24.6844 67.5691 27.7484 66.3316 31.1552 65.6684C33.3479 65.1772 36.0157 64.8677 38.6709 65.804C40.3031 65.8133 41.912 65.979 42.6631 65.165C43.0107 65.0281 43.1744 64.3504 43.2575 63.6307C43.3098 62.8118 43.1317 61.7533 43.143 60.4358C43.1244 59.9034 43.2075 59.2202 43.4946 58.4448C43.7975 57.6724 44.3329 57.0978 45.0209 56.7964C45.3776 56.3806 45.676 56.2879 45.4458 56.4041C45.4956 56.7202 45.4394 56.7854 45.4322 56.7193C45.4315 56.7123 45.4312 56.7045 45.4315 56.6951C45.3033 56.5098 45.0093 56.32 44.6375 56.0529C44.5243 55.3577 44.2684 54.6069 43.9353 53.7068C45.2423 52.9416 46.2582 52.6601 46.2974 51.865C46.1964 52.0354 46.1529 52.1295 46.1637 52.2303C46.1873 52.2349 46.1335 52.1166 46.0699 51.8834C45.921 51.4851 45.5601 50.8455 45.307 49.8085C45.1383 49.3616 45.2059 48.6659 45.5909 47.8126C46.2004 47.008 46.7709 46.6823 47.1458 46.7251C48.5163 45.9692 49.7221 45.4098 50.2467 44.4648C50.3352 44.3014 50.3993 44.2358 50.3741 44.2638C50.3637 44.3205 50.4415 44.5585 50.5713 44.9941C48.5213 42.5116 46.7983 39.9069 45.7104 36.9519C45.4337 36.2076 45.2018 35.4222 45.0572 34.5904C45.0212 34.379 44.9912 34.1513 44.9724 33.9076C44.9778 33.7477 44.9885 33.5436 45.0101 33.2964C47.3556 27.6167 46.5803 21.4846 45.6428 17.735C45.0621 15.4789 44.357 13.6404 43.8757 12.4169C43.612 11.7468 43.3914 11.203 43.2614 10.8378C43.1927 10.6448 43.1453 10.4911 43.1231 10.3801C43.1117 10.3232 43.1069 10.2769 43.1089 10.2415C43.111 10.204 43.1204 10.1787 43.1384 10.1651Z" fill="#404040"/>
<path d="M6.87794 12.4365C6.83191 12.5656 6.79132 12.7003 6.5566 12.9505C6.3829 13.2579 6.33362 13.42 6.11364 13.9484C5.68744 15.0212 5.40526 15.9523 4.94136 17.7874C4.10266 21.1673 3.3886 25.4175 3.38173 30.8546C3.38371 33.8915 3.64454 37.1376 4.29163 40.4543C4.78339 42.9748 5.45963 45.3376 6.28587 47.533C8.38039 53.1454 11.4499 57.4572 13.7555 60.3622C16.0827 63.2943 17.6815 64.9037 17.411 65.294C17.2802 65.4827 8.47301 61.8491 3.1331 48.9809C2.15011 46.5955 1.36177 44.0056 0.820666 41.2434C0.108 37.6054 -0.100153 34.057 0.0421058 30.7685C0.283301 24.9776 1.50499 20.3468 2.9199 16.9987C3.64045 15.2793 4.33501 14.0864 5.07375 13.2112C5.42103 12.791 5.75101 12.5009 6.07985 12.329C6.73355 11.8145 6.84943 12.5164 6.87794 12.4365Z" fill="#404040"/>
<path d="M52.2511 91.0675C51.8948 91.1807 51.0425 87.1201 46.8468 83.0317C45.1701 81.387 42.8723 79.8435 40.0303 79.0053C35.748 77.7307 30.1332 78.127 25.2254 81.3889C23.0999 82.8051 21.1496 84.763 19.7167 87.1694C18.2444 89.6207 17.3195 92.5757 17.0405 95.6958C16.8408 97.8634 16.9598 100.1 17.3326 102.363C17.5971 103.969 17.9839 105.555 18.452 107.093C20.1276 112.614 22.8478 117.663 25.6635 122.06C25.3736 125.94 26.3187 129.689 28.3258 132.134C28.3258 132.134 28.3258 132.134 28.3258 132.134C30.2892 134.514 33.1675 135.76 35.7535 136.151C38.949 136.592 41.7168 135.888 43.6823 134.51C44.937 133.643 45.8257 132.542 46.3993 131.489C47.8834 128.802 47.7339 126.681 47.9974 126.67C47.9661 126.671 49.0888 128.583 47.7324 132.191C47.2172 133.541 46.2977 135.026 44.8463 136.256C42.5956 138.143 39.2993 139.368 35.4788 139.03C32.3444 138.788 28.7853 137.452 26.0405 134.467C23.3808 131.595 22.0552 127.354 22.5274 122.979C19.5636 118.828 16.7232 113.939 14.9492 108.358C14.4118 106.66 13.9742 104.885 13.6787 103.056C13.2624 100.48 13.141 97.8788 13.3759 95.3052C13.7254 91.5697 14.8927 88.0362 16.7358 85.0544C18.5429 82.151 20.9223 79.869 23.5 78.2648C29.419 74.5736 35.9297 74.488 40.8147 76.2679C44.0606 77.4578 46.554 79.4552 48.2766 81.4999C52.7541 86.8458 52.1347 91.1045 52.2511 91.0675Z" fill="#404040"/>
<path d="M45.5667 99.5858C45.2928 100.057 43.7356 99.6044 41.4123 98.493C39.7827 97.8588 37.1867 96.7177 35.0531 96.7243C34.2823 96.7481 33.536 96.8207 33.1498 97.1621C32.867 97.2977 32.6275 97.6416 32.4116 98.1007C32.292 98.3551 32.1815 98.6409 32.0792 98.932C31.5858 100.51 31.6548 102.531 31.7138 104.342C31.9818 110.301 32.9764 114.552 31.9952 114.875C31.3938 115.073 28.9968 111.337 27.9774 104.79C27.6462 102.825 27.455 100.318 28.1165 97.6709C28.2524 97.0919 28.4639 96.5099 28.7572 95.9488C29.2849 94.9396 30.055 94.0405 31.0515 93.356C32.562 92.483 34.0858 92.3161 35.3515 92.508C38.6899 92.9748 41.2754 94.7507 42.7798 95.983C44.7816 97.7982 45.8409 99.1145 45.5667 99.5858Z" fill="#404040"/>
<path d="M39.3871 0C39.3858 -2.62597e-08 39.3848 0.0010248 39.3848 0.00228899C39.3848 0.00305319 39.3851 0.00375944 39.3858 0.00418429C48.0784 5.81788 53.0088 23.9132 50.3814 32.0381C50.3574 32.1179 49.8845 34.2065 51.1919 36.0395C51.2462 36.1157 51.2925 36.2002 51.3248 36.288C53.7704 42.9497 57.856 44.9963 51.8551 50.7193C51.796 50.7756 51.7768 50.8549 51.7768 50.9365V50.9447C51.7768 52.0933 51.5055 53.5265 50.904 54.8495C50.8895 54.8816 50.8897 54.9156 50.8897 54.9508C50.9129 55.9069 50.7862 57.1441 50.3929 58.1746C50.1412 58.8339 49.6752 59.3943 49.2272 59.9648C49.0836 60.1476 49.0203 60.3793 49.0379 60.6111C49.1815 62.5079 48.9539 64.3576 48.4158 65.7911C47.493 68.2487 45.6049 70.812 42.6673 71.906C42.6651 71.9069 42.6629 71.9079 42.6609 71.9091C42.6589 71.9102 42.6569 71.9112 42.6548 71.912L42.5398 71.9562L42.3826 72.0022L42.3746 72.0057C41.9546 72.1297 41.8684 72.8076 42.2566 73.0101C45.8346 74.8769 49.2564 78.1127 52.1374 82.8548C52.1382 82.8562 52.139 82.8577 52.1396 82.8592L52.1403 82.8609C52.1412 82.8629 52.1424 82.8648 52.1438 82.8665C52.145 82.8679 52.146 82.8695 52.1468 82.8712C60.3008 99.8355 56.508 125.545 48.6489 138.374C48.2598 139.01 48.7074 139.848 49.4523 139.849L255.848 140C256.358 140 256.771 139.588 256.772 139.078L256.923 0.928597C256.924 0.418405 256.51 0.00451016 256 0.00449956L39.3871 0Z" fill="url(#paint0_linear)"/>
<path d="M72.7879 130.031C70.9171 130.031 69.5223 129.605 68.6033 128.751C67.6843 127.898 67.2248 126.438 67.2248 124.37V105.465H63.6802V103.25C63.8443 103.217 64.3038 103.102 65.0586 102.905C65.8135 102.708 66.3222 102.528 66.5848 102.364C67.1099 102.068 67.5202 101.477 67.8156 100.591C68.0781 99.9677 68.3899 98.9666 68.751 97.5882C69.112 96.2097 69.3253 95.3892 69.391 95.1266H72.2956L72.3941 102.216H80.6156V105.465H72.3941V120.579C72.3941 122.45 72.4433 123.763 72.5418 124.518C72.673 125.272 72.9192 125.765 73.2802 125.994C73.6741 126.224 74.3305 126.339 75.2495 126.339C76.1356 126.339 77.1038 126.224 78.1541 125.994C79.2372 125.765 80.0741 125.519 80.6649 125.256L81.4033 127.471C80.6156 128.062 79.3356 128.637 77.5633 129.194C75.8238 129.752 74.232 130.031 72.7879 130.031Z" fill="#404040"/>
<path d="M84.4176 115.804C84.4176 112.85 85.0248 110.29 86.2391 108.124C87.4535 105.957 89.0453 104.316 91.0145 103.201C93.0166 102.052 95.1499 101.477 97.4146 101.477C101.55 101.477 104.652 102.79 106.719 105.416C108.82 108.042 109.87 111.488 109.87 115.754C109.87 118.741 109.263 121.318 108.048 123.484C106.834 125.65 105.226 127.291 103.224 128.407C101.255 129.523 99.1377 130.081 96.873 130.081C92.7376 130.081 89.6197 128.768 87.5191 126.142C85.4514 123.517 84.4176 120.07 84.4176 115.804ZM97.1684 127.274C99.433 127.274 101.173 126.339 102.387 124.468C103.601 122.598 104.208 119.824 104.208 116.148C104.208 112.505 103.651 109.617 102.535 107.484C101.419 105.35 99.63 104.284 97.1684 104.284C94.9038 104.284 93.1479 105.219 91.9007 107.09C90.6863 108.961 90.0792 111.734 90.0792 115.41C90.0792 119.053 90.6535 121.941 91.8022 124.074C92.951 126.208 94.7397 127.274 97.1684 127.274Z" fill="#404040"/>
<path d="M114.468 127.127L118.16 126.831V106.007L114.616 105.121V102.462L121.41 101.576H121.508L122.591 102.462V103.348L122.444 107.188H122.591C122.919 106.63 123.51 105.908 124.364 105.022C125.217 104.136 126.316 103.332 127.662 102.61C129.008 101.855 130.468 101.477 132.044 101.477C132.7 101.477 133.242 101.559 133.668 101.724V107.237C133.438 107.073 133.061 106.926 132.536 106.794C132.044 106.63 131.486 106.548 130.862 106.548C128.138 106.548 125.611 107.385 123.28 109.059V126.782L129.533 127.176V129.539H114.468V127.127Z" fill="#404040"/>
<path d="M137.016 127.127L140.709 126.831V106.007L137.164 105.121V102.462L143.958 101.576H144.056L145.139 102.462V103.348L144.992 107.188H145.139C145.468 106.63 146.058 105.908 146.912 105.022C147.765 104.136 148.865 103.332 150.21 102.61C151.556 101.855 153.016 101.477 154.592 101.477C155.248 101.477 155.79 101.559 156.216 101.724V107.237C155.987 107.073 155.609 106.926 155.084 106.794C154.592 106.63 154.034 106.548 153.41 106.548C150.686 106.548 148.159 107.385 145.829 109.059V126.782L152.081 127.176V129.539H137.016V127.127Z" fill="#404040"/>
<path d="M165.275 97.2928C164.225 97.2928 163.437 96.9974 162.912 96.4066C162.387 95.8159 162.125 95.061 162.125 94.142C162.125 93.0917 162.436 92.222 163.06 91.5328C163.716 90.8435 164.602 90.4989 165.718 90.4989C166.834 90.4989 167.655 90.7943 168.18 91.3851C168.705 91.9758 168.968 92.7307 168.968 93.6497C168.968 94.7656 168.639 95.6517 167.983 96.3082C167.359 96.9646 166.473 97.2928 165.325 97.2928H165.275ZM163.306 106.007L159.564 105.121V102.511L167.195 101.576H167.294L168.426 102.462V126.733L172.365 127.127V129.539H159.318V127.127L163.306 126.684V106.007Z" fill="#404040"/>
<path d="M178.814 106.007L175.27 105.121V102.462L182.31 101.576H182.457L183.491 102.462V104.53L183.442 105.711C184.623 104.661 186.182 103.709 188.119 102.856C190.055 102.003 191.91 101.576 193.682 101.576C195.75 101.576 197.341 101.97 198.457 102.757C199.606 103.545 200.41 104.759 200.87 106.401C201.329 108.009 201.559 110.191 201.559 112.948V126.733L205.005 127.078V129.539H193.337V127.127L196.39 126.733V112.899C196.39 110.963 196.258 109.453 195.996 108.37C195.733 107.254 195.241 106.433 194.519 105.908C193.797 105.35 192.747 105.071 191.368 105.071C190.187 105.071 188.923 105.367 187.577 105.957C186.232 106.548 185.034 107.237 183.983 108.025V126.684L187.331 127.127V129.539H175.713V127.127L178.814 126.684V106.007Z" fill="#404040"/>
<path d="M208.553 115.804C208.553 112.85 209.16 110.29 210.374 108.124C211.589 105.957 213.181 104.316 215.15 103.201C217.152 102.052 219.285 101.477 221.55 101.477C225.685 101.477 228.787 102.79 230.854 105.416C232.955 108.042 234.005 111.488 234.005 115.754C234.005 118.741 233.398 121.318 232.184 123.484C230.969 125.65 229.361 127.291 227.359 128.407C225.39 129.523 223.273 130.081 221.008 130.081C216.873 130.081 213.755 128.768 211.654 126.142C209.587 123.517 208.553 120.07 208.553 115.804ZM221.304 127.274C223.568 127.274 225.308 126.339 226.522 124.468C227.736 122.598 228.344 119.824 228.344 116.148C228.344 112.505 227.786 109.617 226.67 107.484C225.554 105.35 223.765 104.284 221.304 104.284C219.039 104.284 217.283 105.219 216.036 107.09C214.822 108.961 214.214 111.734 214.214 115.41C214.214 119.053 214.789 121.941 215.937 124.074C217.086 126.208 218.875 127.274 221.304 127.274Z" fill="#404040"/>
<path fill-rule="evenodd" clip-rule="evenodd" d="M81.4034 127.471C80.6157 128.062 79.3357 128.636 77.5634 129.194C75.8239 129.752 74.2321 130.031 72.788 130.031C70.9172 130.031 69.5223 129.605 68.6033 128.751C67.6843 127.898 67.2249 126.438 67.2249 124.37V105.465H63.6802V103.25C63.8443 103.217 64.3038 103.102 65.0587 102.905C65.8136 102.708 66.3223 102.528 66.5849 102.364C67.11 102.068 67.5202 101.477 67.8156 100.591C68.0782 99.9676 68.39 98.9666 68.751 97.5881C69.112 96.2097 69.3254 95.3892 69.391 95.1266H72.2957L72.3941 102.216H80.6157V105.465H72.3941V120.579C72.3941 122.45 72.4433 123.763 72.5418 124.518C72.6731 125.272 72.9192 125.765 73.2803 125.994C73.6741 126.224 74.3305 126.339 75.2495 126.339C76.1357 126.339 77.1039 126.224 78.1541 125.994C78.5152 125.918 78.8488 125.839 79.1552 125.759C79.7678 125.599 80.2711 125.431 80.6649 125.256L81.4034 127.471ZM74.668 124.161C74.8199 124.176 75.0119 124.185 75.2495 124.185C75.9523 124.185 76.764 124.094 77.6939 123.89L77.7005 123.889L77.7072 123.887C78.7313 123.67 79.4 123.461 79.7902 123.288L81.958 122.324L83.9376 128.263L82.6957 129.194C81.6107 130.008 80.0497 130.669 78.2153 131.247C76.3189 131.855 74.5037 132.185 72.788 132.185C70.6354 132.185 68.6126 131.699 67.1377 130.33C65.5658 128.87 65.071 126.663 65.071 124.37V107.619H61.5264V101.484L63.2577 101.138C63.2577 101.138 63.2576 101.138 63.2577 101.138C63.259 101.137 63.2673 101.136 63.2845 101.132C63.3037 101.128 63.3293 101.122 63.3623 101.114C63.4285 101.098 63.5157 101.077 63.6255 101.049C63.8451 100.995 64.1408 100.919 64.515 100.821C64.8566 100.732 65.1091 100.655 65.2861 100.592C65.4011 100.551 65.4571 100.526 65.4714 100.52L65.4855 100.511L65.4882 100.509C65.4951 100.501 65.5049 100.488 65.5173 100.47C65.5765 100.385 65.6712 100.213 65.7723 99.9101L65.7985 99.8317L65.8306 99.7554C66.0301 99.2814 66.3105 98.4053 66.6674 97.0424C67.0301 95.6576 67.2395 94.852 67.3015 94.6042L67.7093 92.9727H74.4198L74.5183 100.062H82.7696V107.619H74.548V120.579C74.548 122.374 74.595 123.538 74.668 124.161ZM85.8321 127.481L85.827 127.475C83.386 124.375 82.2638 120.418 82.2638 115.804C82.2638 112.551 82.9343 109.614 84.3604 107.07C85.7468 104.597 87.6059 102.658 89.9476 101.329C92.268 99.9992 94.7683 99.3235 97.4146 99.3235C102.034 99.3235 105.834 100.815 108.406 104.077C110.883 107.176 112.024 111.136 112.024 115.754C112.024 119.035 111.355 121.99 109.927 124.537C108.536 127.018 106.655 128.959 104.279 130.285C101.988 131.581 99.5071 132.234 96.8731 132.234C92.2492 132.234 88.44 130.741 85.8373 127.488L85.8321 127.481ZM91.0146 103.2C89.0453 104.316 87.4535 105.957 86.2392 108.124C85.0248 110.29 84.4176 112.85 84.4176 115.804C84.4176 120.07 85.4515 123.516 87.5192 126.142C89.6197 128.768 92.7377 130.081 96.8731 130.081C99.1377 130.081 101.255 129.523 103.224 128.407C105.226 127.291 106.834 125.65 108.049 123.484C109.263 121.317 109.87 118.741 109.87 115.754C109.87 111.488 108.82 108.042 106.719 105.416C104.652 102.79 101.55 101.477 97.4146 101.477C95.15 101.477 93.0166 102.052 91.0146 103.2ZM97.1685 125.121C98.7172 125.121 99.7705 124.543 100.58 123.296C101.465 121.933 102.055 119.651 102.055 116.148C102.055 112.69 101.519 110.189 100.626 108.482C100.223 107.712 99.7548 107.233 99.253 106.933C98.7486 106.633 98.0821 106.437 97.1685 106.437C95.6222 106.437 94.5434 107.015 93.7003 108.273C92.8199 109.637 92.2331 111.917 92.2331 115.41C92.2331 118.861 92.7829 121.353 93.6987 123.053C94.119 123.834 94.6 124.321 95.1085 124.625C95.6173 124.928 96.2771 125.121 97.1685 125.121ZM112.314 125.138L116.007 124.843V107.688L112.462 106.802V100.571L121.27 99.422H122.277L124.745 101.441V101.88C125.328 101.467 125.957 101.081 126.626 100.721C128.296 99.7885 130.114 99.3235 132.044 99.3235C132.859 99.3235 133.686 99.4226 134.441 99.7133L135.822 100.244V100.465L143.818 99.422H144.825L147.293 101.441V101.88C147.877 101.467 148.505 101.081 149.175 100.721C150.844 99.7885 152.662 99.3235 154.592 99.3235C155.407 99.3235 156.234 99.4226 156.99 99.7133L158.37 100.244V100.488L167.064 99.422H168.036L170.58 101.413V124.784L174.288 125.155L176.66 124.816V107.688L173.116 106.802V100.562L182.175 99.422H183.254L185.645 101.471V101.655C186.157 101.387 186.693 101.131 187.25 100.885C189.408 99.934 191.558 99.422 193.682 99.422C195.974 99.422 198.067 99.8504 199.687 100.989C201.332 102.122 202.38 103.807 202.943 105.815C203.48 107.699 203.713 110.106 203.713 112.948V124.784L207.159 125.128V131.693H191.184V125.233L194.236 124.839V112.899C194.236 111.028 194.106 109.716 193.903 108.877L193.901 108.87L193.899 108.863C193.72 108.103 193.45 107.794 193.252 107.65L193.227 107.632L193.202 107.613C193.006 107.461 192.502 107.225 191.368 107.225C190.548 107.225 189.58 107.43 188.443 107.93C187.598 108.301 186.831 108.709 186.137 109.152V124.796L189.485 125.239V131.693H157.165V125.199L161.152 124.756V107.71L158.37 107.051V111.423L155.012 109.024C155.003 109.02 154.991 109.015 154.976 109.009C154.896 108.978 154.763 108.934 154.562 108.884L154.482 108.864L154.403 108.838C154.169 108.76 153.848 108.702 153.41 108.702C151.498 108.702 149.699 109.194 147.983 110.219V124.76L154.235 125.154V131.693H134.862V125.138L138.555 124.843V107.688L135.822 107.005V111.423L132.464 109.024C132.455 109.02 132.443 109.015 132.428 109.009C132.348 108.978 132.214 108.934 132.014 108.884L131.933 108.864L131.855 108.838C131.621 108.76 131.299 108.702 130.862 108.702C128.95 108.702 127.151 109.194 125.434 110.219V124.76L131.687 125.154V131.693H112.314V125.138ZM123.281 126.782V109.059C123.658 108.787 124.042 108.538 124.43 108.311C126.436 107.136 128.58 106.548 130.862 106.548C131.088 106.548 131.306 106.559 131.514 106.581C131.882 106.618 132.222 106.69 132.536 106.794C133.061 106.926 133.439 107.073 133.668 107.237V101.724C133.242 101.559 132.7 101.477 132.044 101.477C130.468 101.477 129.008 101.855 127.662 102.61C126.485 103.242 125.496 103.936 124.695 104.694C124.581 104.802 124.47 104.911 124.364 105.022C123.732 105.678 123.244 106.244 122.901 106.72C122.78 106.887 122.677 107.043 122.591 107.188H122.444L122.591 103.348V102.462L121.508 101.576H121.41L114.616 102.462V105.12L118.16 106.007V126.831L114.468 127.127V129.539H129.533V127.176L123.281 126.782ZM140.709 106.007V126.831L137.016 127.127V129.539H152.081V127.176L145.829 126.782V109.059C146.207 108.787 146.59 108.538 146.978 108.311C148.984 107.136 151.128 106.548 153.41 106.548C153.636 106.548 153.854 106.559 154.063 106.581C154.43 106.618 154.77 106.69 155.084 106.794C155.609 106.926 155.987 107.073 156.216 107.237V101.724C155.79 101.559 155.248 101.477 154.592 101.477C153.016 101.477 151.556 101.855 150.21 102.61C149.033 103.242 148.044 103.936 147.243 104.694C147.129 104.802 147.018 104.911 146.912 105.022C146.28 105.678 145.793 106.244 145.449 106.72C145.328 106.887 145.225 107.043 145.139 107.188H144.992L145.139 103.348V102.462L144.056 101.576H143.958L137.164 102.462V105.12L140.709 106.007ZM163.306 106.007V126.684L159.318 127.127V129.539H172.365V127.127L168.426 126.733V102.462L167.294 101.576H167.195L159.565 102.511V105.12L163.306 106.007ZM183.984 126.684V108.025C184.15 107.9 184.32 107.778 184.493 107.658C185.417 107.022 186.445 106.455 187.577 105.957C188.923 105.367 190.187 105.071 191.368 105.071C192.747 105.071 193.797 105.35 194.519 105.908C195.241 106.433 195.733 107.254 195.996 108.37C196.258 109.453 196.39 110.963 196.39 112.899V126.733L193.337 127.127V129.539H205.005V127.078L201.559 126.733V112.948C201.559 110.191 201.329 108.009 200.87 106.4C200.41 104.759 199.606 103.545 198.457 102.757C197.342 101.97 195.75 101.576 193.682 101.576C191.91 101.576 190.055 102.003 188.119 102.856C187.211 103.256 186.387 103.677 185.645 104.121C185.42 104.255 185.203 104.391 184.993 104.53C184.963 104.549 184.934 104.569 184.904 104.589C184.366 104.949 183.878 105.324 183.442 105.711L183.491 104.53V102.462L182.457 101.576H182.31L175.27 102.462V105.12L178.814 106.007V126.684L175.713 127.127V129.539H187.331V127.127L183.984 126.684ZM161.481 90.0673L161.5 90.0473C162.634 88.8574 164.123 88.345 165.718 88.345C167.188 88.345 168.71 88.739 169.79 89.9541C170.722 91.0023 171.122 92.2943 171.122 93.6497C171.122 95.2045 170.651 96.6744 169.525 97.8118C168.394 98.9896 166.887 99.4466 165.325 99.4466H165.275C163.823 99.4466 162.359 99.0265 161.302 97.8376C160.371 96.7893 159.971 95.4974 159.971 94.142C159.971 92.6322 160.434 91.2249 161.463 90.0877L161.481 90.0673ZM167.983 96.3081C168.639 95.6517 168.968 94.7656 168.968 93.6497C168.968 92.7307 168.705 91.9758 168.18 91.385C167.655 90.7943 166.834 90.4989 165.718 90.4989C164.603 90.4989 163.716 90.8435 163.06 91.5327C162.436 92.222 162.125 93.0917 162.125 94.142C162.125 95.061 162.387 95.8158 162.912 96.4066C163.437 96.9974 164.225 97.2928 165.275 97.2928H165.325C166.473 97.2928 167.359 96.9646 167.983 96.3081ZM209.967 127.481L209.962 127.475C207.521 124.375 206.399 120.418 206.399 115.804C206.399 112.551 207.07 109.614 208.496 107.07C209.882 104.597 211.741 102.658 214.083 101.329C216.403 99.9992 218.904 99.3235 221.55 99.3235C226.17 99.3235 229.97 100.815 232.542 104.077C235.018 107.177 236.159 111.136 236.159 115.754C236.159 119.035 235.491 121.99 234.062 124.537C232.672 127.018 230.79 128.958 228.414 130.284C226.123 131.581 223.642 132.234 221.008 132.234C216.384 132.234 212.575 130.741 209.973 127.488L209.967 127.481ZM227.359 128.407C229.361 127.291 230.969 125.65 232.184 123.484C233.398 121.317 234.005 118.741 234.005 115.754C234.005 111.488 232.955 108.042 230.854 105.416C228.787 102.79 225.685 101.477 221.55 101.477C219.285 101.477 217.152 102.052 215.15 103.2C213.181 104.316 211.589 105.957 210.374 108.124C209.16 110.29 208.553 112.85 208.553 115.804C208.553 120.07 209.587 123.516 211.654 126.142C213.755 128.768 216.873 130.081 221.008 130.081C223.273 130.081 225.39 129.523 227.359 128.407ZM221.304 125.121C222.852 125.121 223.906 124.543 224.716 123.296C225.6 121.933 226.19 119.651 226.19 116.148C226.19 112.69 225.654 110.189 224.761 108.482C224.359 107.712 223.89 107.233 223.388 106.933C222.884 106.633 222.217 106.437 221.304 106.437C219.757 106.437 218.679 107.015 217.835 108.274C216.955 109.637 216.368 111.917 216.368 115.41C216.368 118.861 216.918 121.353 217.834 123.053C218.254 123.834 218.735 124.321 219.244 124.625C219.753 124.928 220.412 125.121 221.304 125.121ZM102.387 124.468C101.173 126.339 99.4331 127.274 97.1685 127.274C94.7397 127.274 92.951 126.208 91.8023 124.074C90.6536 121.941 90.0792 119.053 90.0792 115.41C90.0792 111.734 90.6864 108.961 91.9007 107.09C93.1479 105.219 94.9038 104.284 97.1685 104.284C99.63 104.284 101.419 105.35 102.535 107.484C103.651 109.617 104.208 112.505 104.208 116.148C104.208 119.824 103.601 122.597 102.387 124.468ZM226.522 124.468C225.308 126.339 223.568 127.274 221.304 127.274C218.875 127.274 217.086 126.208 215.938 124.074C214.789 121.941 214.214 119.053 214.214 115.41C214.214 111.734 214.822 108.961 216.036 107.09C217.283 105.219 219.039 104.284 221.304 104.284C223.765 104.284 225.554 105.35 226.67 107.484C227.786 109.617 228.344 112.505 228.344 116.148C228.344 119.824 227.737 122.597 226.522 124.468Z" fill="white"/>
<path d="M64.862 44.7756L61.3174 43.8894V41.231L68.3574 40.3448H68.5051L69.539 41.231V43.2987L69.4897 44.4802C70.6713 43.4299 72.2303 42.4781 74.1667 41.6248C76.1031 40.7715 77.9575 40.3448 79.7298 40.3448C81.7975 40.3448 83.3893 40.7387 84.5052 41.5263C85.6539 42.314 86.458 43.5284 86.9175 45.1694C87.377 46.7777 87.6067 48.9602 87.6067 51.7172V65.5019L91.0529 65.8465V68.308H79.3852V65.8957L82.4375 65.5019V51.6679C82.4375 49.7315 82.3062 48.2218 82.0436 47.1387C81.7811 46.0228 81.2888 45.2023 80.5667 44.6771C79.8447 44.1192 78.7944 43.8402 77.4159 43.8402C76.2344 43.8402 74.9708 44.1356 73.6251 44.7264C72.2795 45.3171 71.0815 46.0064 70.0313 46.7941V65.4526L73.379 65.8957V68.308H61.7605V65.8957L64.862 65.4526V44.7756Z" fill="#404040"/>
<path d="M100.41 36.0617C99.3596 36.0617 98.5719 35.7663 98.0468 35.1755C97.5217 34.5848 97.2591 33.8299 97.2591 32.9109C97.2591 31.8607 97.5709 30.9909 98.1945 30.3017C98.8509 29.6124 99.7371 29.2678 100.853 29.2678C101.969 29.2678 102.789 29.5632 103.315 30.154C103.84 30.7448 104.102 31.4996 104.102 32.4186C104.102 33.5345 103.774 34.4207 103.118 35.0771C102.494 35.7335 101.608 36.0617 100.459 36.0617H100.41ZM98.4406 44.7756L94.6991 43.8894V41.2802L102.33 40.3448H102.428L103.561 41.231V65.5019L107.499 65.8957V68.308H94.4529V65.8957L98.4406 65.4526V44.7756Z" fill="#404040"/>
<path d="M108.73 40.9848H120.152V43.2987L116.657 43.9387L121.629 58.1172L123.697 64.3695L125.469 58.3141L130.441 43.9387L127.093 43.2987V40.9848H137.087V43.2987L134.527 43.9387L125.026 68.7019H120.841L110.946 43.9387L108.73 43.2987V40.9848Z" fill="#404040"/>
<path d="M151.087 68.8496C147.115 68.8496 144.079 67.5531 141.979 64.9603C139.911 62.3675 138.877 58.9049 138.877 54.5726C138.877 51.7172 139.419 49.2064 140.502 47.0402C141.585 44.8741 143.095 43.2002 145.031 42.0187C147 40.8371 149.232 40.2463 151.727 40.2463C154.779 40.2463 157.142 41.0997 158.816 42.8064C160.523 44.4802 161.425 46.8925 161.524 50.0433C161.524 52.0454 161.409 53.5715 161.179 54.6218H144.244C144.309 57.871 145.064 60.4967 146.508 62.4988C147.952 64.468 150.004 65.4526 152.662 65.4526C153.975 65.4526 155.337 65.2229 156.748 64.7634C158.192 64.2711 159.308 63.6967 160.096 63.0403L161.031 65.2065C160.08 66.1911 158.668 67.0444 156.797 67.7665C154.927 68.4885 153.023 68.8496 151.087 68.8496ZM156.108 52.0126C156.207 51.3233 156.256 50.6177 156.256 49.8956C156.223 47.7623 155.764 46.0884 154.877 44.8741C154.024 43.6269 152.662 43.0033 150.791 43.0033C148.888 43.0033 147.362 43.6925 146.213 45.071C145.097 46.4494 144.457 48.7633 144.293 52.0126H156.108Z" fill="#404040"/>
<path d="M165.853 65.8957L169.546 65.6003V44.7756L166.001 43.8894V41.231L172.795 40.3448H172.893L173.976 41.231V42.1171L173.829 45.9571H173.976C174.305 45.3992 174.895 44.6771 175.749 43.791C176.602 42.9048 177.702 42.1007 179.047 41.3787C180.393 40.6238 181.853 40.2463 183.429 40.2463C184.085 40.2463 184.627 40.3284 185.053 40.4925V46.0064C184.824 45.8423 184.446 45.6946 183.921 45.5633C183.429 45.3992 182.871 45.3171 182.247 45.3171C179.523 45.3171 176.996 46.1541 174.666 47.8279V65.5511L180.918 65.9449V68.308H165.853V65.8957Z" fill="#404040"/>
<path d="M192.881 64.3695C193.21 64.8618 193.899 65.3049 194.949 65.6988C196.032 66.0926 197.165 66.2895 198.346 66.2895C200.217 66.2895 201.595 65.9285 202.482 65.2065C203.368 64.4844 203.811 63.4834 203.811 62.2034C203.811 61.3172 203.532 60.5459 202.974 59.8895C202.416 59.2331 201.628 58.6587 200.611 58.1664C199.626 57.6413 198.198 57.0177 196.328 56.2957C193.8 55.3439 191.946 54.2115 190.765 52.8987C189.616 51.5531 189.041 49.7972 189.041 47.631C189.041 46.1869 189.468 44.9233 190.321 43.8402C191.208 42.7571 192.406 41.9202 193.915 41.3294C195.458 40.7058 197.165 40.394 199.035 40.394C200.545 40.394 201.858 40.5089 202.974 40.7387C204.123 40.9684 205.042 41.1981 205.731 41.4279C206.42 41.6576 206.88 41.8053 207.109 41.871V47.9756H204.106L203.122 44.3325C202.925 43.9387 202.399 43.6105 201.546 43.3479C200.693 43.0525 199.741 42.9048 198.691 42.9048C197.214 42.9048 196.016 43.233 195.097 43.8894C194.211 44.5458 193.768 45.432 193.768 46.5479C193.768 47.5325 193.997 48.353 194.457 49.0095C194.949 49.6331 195.556 50.1418 196.278 50.5356C197 50.9295 197.985 51.389 199.232 51.9141L200.217 52.3079C202.055 53.03 203.548 53.7192 204.697 54.3756C205.846 55.0321 206.797 55.9018 207.552 56.9849C208.34 58.0351 208.734 59.3316 208.734 60.8741C208.734 63.3029 207.782 65.2393 205.878 66.6834C204.008 68.1275 201.431 68.8496 198.149 68.8496C196.541 68.8496 194.851 68.6362 193.078 68.2096C191.339 67.7501 189.911 67.2906 188.795 66.8311V60.5295H191.995L192.881 64.3695Z" fill="#404040"/>
<path d="M213.159 54.5726C213.159 51.6187 213.766 49.0587 214.98 46.8925C216.195 44.7264 217.787 43.0853 219.756 41.9694C221.758 40.8207 223.891 40.2463 226.156 40.2463C230.291 40.2463 233.393 41.5592 235.461 44.1848C237.561 46.8105 238.611 50.2566 238.611 54.5233C238.611 57.51 238.004 60.0864 236.79 62.2526C235.575 64.4188 233.967 66.0598 231.965 67.1757C229.996 68.2916 227.879 68.8496 225.614 68.8496C221.479 68.8496 218.361 67.5367 216.26 64.9111C214.193 62.2854 213.159 58.8393 213.159 54.5726ZM225.91 66.0434C228.174 66.0434 229.914 65.108 231.128 63.2372C232.343 61.3664 232.95 58.5931 232.95 54.9172C232.95 51.2741 232.392 48.3859 231.276 46.2525C230.16 44.1192 228.371 43.0525 225.91 43.0525C223.645 43.0525 221.889 43.9879 220.642 45.8587C219.428 47.7295 218.82 50.5028 218.82 54.1787C218.82 57.8218 219.395 60.71 220.544 62.8434C221.692 64.9767 223.481 66.0434 225.91 66.0434Z" fill="#404040"/>
<path fill-rule="evenodd" clip-rule="evenodd" d="M61.76 65.8957L64.8616 65.4527V44.7756L61.3169 43.8895V41.231L68.357 40.3448H68.5047L69.5385 41.231V43.2987L69.4893 44.4802C69.9254 44.0926 70.4129 43.7184 70.9518 43.3576C70.9812 43.3379 71.0107 43.3183 71.0404 43.2987C71.2501 43.1603 71.4674 43.0239 71.6924 42.8895C72.4341 42.4463 73.2587 42.0248 74.1662 41.6248C76.1027 40.7715 77.957 40.3448 79.7293 40.3448C81.797 40.3448 83.3888 40.7387 84.5047 41.5264C85.6535 42.3141 86.4576 43.5284 86.9171 45.1695C87.3766 46.7777 87.6063 48.9603 87.6063 51.7172V65.5019L91.0525 65.8465V68.3081H79.3847V65.8957L82.437 65.5019V51.668C82.437 49.7316 82.3058 48.2218 82.0432 47.1387C81.7806 46.0228 81.2883 45.2023 80.5663 44.6772C79.8442 44.1192 78.794 43.8402 77.4155 43.8402C76.2339 43.8402 74.9703 44.1356 73.6247 44.7264C72.492 45.2237 71.464 45.7907 70.5407 46.4275C70.367 46.5472 70.1971 46.6694 70.0308 46.7941V65.4527L73.3785 65.8957V68.3081H61.76V65.8957ZM72.1847 63.5651L75.5324 64.0082V70.4619H59.6062V64.0277L62.7077 63.5846V46.4573L59.1631 45.5712V39.3313L68.222 38.191H69.3014L71.6924 40.2404V40.4236C72.2044 40.1561 72.7399 39.8997 73.2977 39.6539C75.4556 38.7029 77.6057 38.191 79.7293 38.191C82.0212 38.191 84.114 38.6194 85.7347 39.7582C87.3791 40.8904 88.4264 42.5755 88.9896 44.5831C89.5269 46.4668 89.7602 48.8744 89.7602 51.7172V63.5527L93.0633 63.883L96.2863 63.5249V46.479L92.5448 45.5928V39.3743L102.198 38.191H103.171L105.714 40.1816V63.5527L109.653 63.9465V70.4619H77.2309V64.0019L80.2832 63.6081V51.668C80.2832 49.7969 80.1533 48.4849 79.95 47.6462L79.9483 47.6391L79.9466 47.632C79.7678 46.8722 79.4972 46.5629 79.2994 46.4191L79.2741 46.4006L79.2493 46.3815C79.0538 46.2304 78.5488 45.9941 77.4155 45.9941C76.5953 45.9941 75.6278 46.1993 74.4905 46.6986C73.6453 47.0696 72.8781 47.478 72.1847 47.921V63.5651ZM103.56 65.5019V41.231L102.428 40.3448H102.329L94.6986 41.2802V43.8895L98.4402 44.7756V65.4527L94.4525 65.8957V68.3081H107.499V65.8957L103.56 65.5019ZM96.6154 28.8362L96.6344 28.8163C97.7676 27.6264 99.2576 27.114 100.853 27.114C102.322 27.114 103.844 27.5079 104.924 28.7231C105.856 29.7713 106.256 31.0633 106.256 32.4187C106.256 33.9734 105.786 35.4434 104.659 36.5807C103.528 37.7585 102.021 38.2156 100.459 38.2156H100.409C98.9572 38.2156 97.4934 37.7955 96.4365 36.6065C95.5048 35.5583 95.1048 34.2663 95.1048 32.911C95.1048 31.4012 95.568 29.9939 96.5969 28.8567L96.6154 28.8362ZM103.117 35.0771C103.774 34.4207 104.102 33.5346 104.102 32.4187C104.102 31.4997 103.839 30.7448 103.314 30.154C102.789 29.5633 101.968 29.2679 100.853 29.2679C99.7366 29.2679 98.8505 29.6125 98.194 30.3017C97.5705 30.991 97.2587 31.8607 97.2587 32.911C97.2587 33.8299 97.5212 34.5848 98.0464 35.1756C98.5715 35.7664 99.3592 36.0617 100.409 36.0617H100.459C101.607 36.0617 102.494 35.7335 103.117 35.0771ZM106.576 38.831H122.305V45.094L119.522 45.6036L123.582 57.1792L127.592 45.5869L124.939 45.0798V38.831H139.241V44.8752C140.43 42.9316 141.986 41.3533 143.909 40.1801L143.916 40.1759L143.923 40.1718C146.255 38.7722 148.876 38.0925 151.726 38.0925C155.181 38.0925 158.156 39.0677 160.338 41.2833C162.545 43.456 163.566 46.4605 163.676 49.9761L163.677 50.0097V50.0434C163.677 52.092 163.563 53.8026 163.283 55.0821L162.912 56.7757H146.574C146.85 58.6341 147.433 60.0965 148.25 61.232C149.248 62.5888 150.622 63.2988 152.662 63.2988C153.717 63.2988 154.849 63.1152 156.067 62.72C157.364 62.2766 158.207 61.8106 158.717 61.3857L160.93 59.5409L163.578 65.671L162.579 66.7035C161.333 67.9925 159.611 68.9893 157.573 69.7759C155.463 70.59 153.297 71.0034 151.086 71.0034C146.603 71.0034 142.894 69.5116 140.305 66.3162L140.3 66.3097L140.295 66.3032C137.84 63.2258 136.723 59.2422 136.723 54.5726C136.723 51.4424 137.318 48.5913 138.575 46.077C138.76 45.7064 138.957 45.347 139.166 44.9992L136.136 45.7565L126.506 70.8558H124.042L123.822 71.6087L123.573 70.8558H119.382L109.336 45.7157L106.576 44.9184V38.831ZM110.945 43.9387L120.841 68.7019H125.025L134.527 43.9387L137.087 43.2987V40.9848H127.093V43.2987L130.441 43.9387L125.468 58.3142L123.696 64.3696L121.628 58.1172L116.656 43.9387L120.151 43.2987V40.9848H108.73V43.2987L110.945 43.9387ZM156.748 64.7634C155.337 65.2229 153.974 65.4527 152.662 65.4527C150.003 65.4527 147.952 64.468 146.508 62.4988C145.398 60.9596 144.695 59.0519 144.399 56.7757C144.31 56.0911 144.258 55.3731 144.243 54.6218H161.179C161.408 53.5716 161.523 52.0454 161.523 50.0434C161.425 46.8926 160.522 44.4802 158.815 42.8064C157.142 41.0997 154.779 40.2464 151.726 40.2464C149.232 40.2464 147 40.8372 145.031 42.0187C143.094 43.2002 141.585 44.8741 140.502 47.0403C139.418 49.2064 138.877 51.7172 138.877 54.5726C138.877 58.9049 139.911 62.3675 141.978 64.9603C144.079 67.5532 147.115 68.8496 151.086 68.8496C153.023 68.8496 154.926 68.4886 156.797 67.7665C158.668 67.0445 160.079 66.1911 161.031 65.2065L160.096 63.0403C159.604 63.4498 158.985 63.8273 158.238 64.1729C157.788 64.3813 157.291 64.5782 156.748 64.7634ZM154.877 44.8741C154.024 43.6269 152.662 43.0033 150.791 43.0033C148.887 43.0033 147.361 43.6926 146.212 45.071C145.361 46.1226 144.787 47.7185 144.489 49.8587C144.397 50.5241 144.331 51.242 144.292 52.0126H156.108C156.206 51.3234 156.255 50.6177 156.255 49.8957C156.223 47.7623 155.763 46.0885 154.877 44.8741ZM154.101 49.8587C154.063 48.0309 153.665 46.8672 153.137 46.1437L153.118 46.1173L153.099 46.0903C152.745 45.572 152.142 45.1572 150.791 45.1572C149.488 45.1572 148.588 45.5915 147.877 46.4376C147.391 47.0446 146.939 48.1248 146.667 49.8587H154.101ZM163.699 63.9073L167.391 63.6119V46.4573L163.847 45.5712V39.3398L172.655 38.191H173.662L176.13 40.2103V40.6492C176.713 40.2359 177.342 39.8502 178.011 39.49C179.681 38.5575 181.499 38.0925 183.428 38.0925C184.243 38.0925 185.07 38.1915 185.826 38.4822L187.207 39.0133V45.2764C187.49 44.2812 187.963 43.3525 188.629 42.5073L188.641 42.4917L188.654 42.4763C189.807 41.0676 191.325 40.032 193.119 39.3282C194.945 38.5918 196.926 38.2402 199.035 38.2402C200.644 38.2402 202.107 38.3618 203.402 38.6279C204.59 38.8656 205.604 39.1153 206.411 39.3846C207.109 39.617 207.523 39.7494 207.701 39.8L209.263 40.2464V50.1295H202.457L201.208 45.509C201.128 45.4774 201.03 45.4428 200.912 45.4065L200.877 45.3955L200.841 45.3833C200.248 45.178 199.539 45.0587 198.69 45.0587C197.538 45.0587 196.82 45.3108 196.364 45.6313C196.045 45.872 195.921 46.1116 195.921 46.548C195.921 47.1511 196.049 47.5073 196.191 47.7298C196.489 48.093 196.856 48.3974 197.309 48.6448C197.937 48.9874 198.842 49.4124 200.05 49.9216L201.004 50.3033C201.006 50.3041 201.008 50.305 201.011 50.3058C202.9 51.0485 204.495 51.78 205.765 52.5056C207.18 53.3141 208.363 54.3917 209.298 55.7236C210.396 57.2026 210.887 58.9633 210.887 60.8742C210.887 63.9606 209.633 66.5352 207.187 68.3939C204.818 70.2195 201.722 71.0034 198.149 71.0034C196.35 71.0034 194.49 70.7648 192.574 70.3036L192.551 70.2981L192.528 70.292C190.736 69.8188 189.21 69.3313 187.975 68.8227L186.641 68.2735V58.3757H193.708L194.84 63.2789C195.019 63.3898 195.294 63.5273 195.695 63.6782C196.533 63.9817 197.412 64.1357 198.346 64.1357C200.013 64.1357 200.797 63.8007 201.121 63.5368C201.44 63.2761 201.656 62.9236 201.656 62.2034C201.656 61.8124 201.549 61.5395 201.332 61.2845C201.019 60.9156 200.5 60.506 199.672 60.1053L199.634 60.0868L199.597 60.0669C198.728 59.6037 197.398 59.0179 195.56 58.3082C192.869 57.2939 190.664 56.007 189.163 54.3396L189.144 54.3186L189.126 54.2972C188.102 53.0971 187.454 51.6916 187.132 50.1384L183.849 47.7931C183.84 47.7892 183.828 47.7842 183.813 47.7783C183.732 47.7469 183.599 47.7031 183.398 47.6529L183.318 47.6328L183.24 47.6067C183.006 47.5288 182.684 47.471 182.247 47.471C180.334 47.471 178.535 47.9634 176.819 48.9877V63.5287L183.071 63.9225V70.4619H163.699V63.9073ZM174.665 65.5511V47.828C175.043 47.5565 175.426 47.307 175.815 47.0795C177.82 45.9046 179.964 45.3172 182.247 45.3172C182.473 45.3172 182.69 45.328 182.899 45.3495C183.266 45.3875 183.607 45.4587 183.921 45.5633C184.446 45.6946 184.823 45.8423 185.053 46.0064V40.4925C184.626 40.3284 184.085 40.2464 183.428 40.2464C181.853 40.2464 180.392 40.6238 179.047 41.3787C177.869 42.0105 176.88 42.7052 176.08 43.4627C175.965 43.5709 175.855 43.6803 175.748 43.791C175.117 44.4468 174.629 45.0126 174.285 45.4887C174.164 45.6559 174.061 45.8121 173.976 45.9572H173.828L173.976 42.1172V41.231L172.893 40.3448H172.794L166.001 41.231V43.8895L169.545 44.7756V65.6003L165.853 65.8957V68.3081H180.918V65.945L174.665 65.5511ZM196.327 56.2957C198.198 57.0177 199.626 57.6413 200.61 58.1665C201.628 58.6588 202.415 59.2331 202.973 59.8896C203.531 60.546 203.81 61.3173 203.81 62.2034C203.81 63.4834 203.367 64.4844 202.481 65.2065C201.595 65.9286 200.216 66.2896 198.346 66.2896C197.164 66.2896 196.032 66.0927 194.949 65.6988C193.898 65.305 193.209 64.8619 192.881 64.3696L191.995 60.5296H188.795V66.8311C189.911 67.2906 191.338 67.7501 193.078 68.2096C194.85 68.6363 196.541 68.8496 198.149 68.8496C201.431 68.8496 204.007 68.1275 205.878 66.6834C207.782 65.2393 208.733 63.3029 208.733 60.8742C208.733 59.3316 208.34 58.0352 207.552 56.9849C206.797 55.9018 205.845 55.0321 204.696 54.3757C203.548 53.7193 202.054 53.03 200.216 52.308L199.232 51.9141C197.985 51.389 197 50.9295 196.278 50.5357C195.556 50.1418 194.949 49.6331 194.456 49.0095C193.997 48.3531 193.767 47.5326 193.767 46.548C193.767 45.432 194.21 44.5459 195.096 43.8895C196.015 43.2331 197.213 42.9049 198.69 42.9049C199.741 42.9049 200.692 43.0525 201.546 43.3479C202.399 43.6105 202.924 43.9387 203.121 44.3326L204.106 47.9756H207.109V41.871C206.879 41.8054 206.42 41.6577 205.73 41.4279C205.041 41.1982 204.122 40.9684 202.973 40.7387C201.857 40.5089 200.545 40.3941 199.035 40.3941C197.164 40.3941 195.457 40.7059 193.915 41.3295C192.405 41.9202 191.207 42.7572 190.321 43.8402C189.468 44.9233 189.041 46.1869 189.041 47.631C189.041 49.7972 189.615 51.5531 190.764 52.8987C191.946 54.2116 193.8 55.3439 196.327 56.2957ZM214.573 66.2502L214.568 66.2437C212.127 63.1439 211.005 59.1871 211.005 54.5726C211.005 51.3199 211.675 48.3832 213.101 45.8393C214.488 43.3663 216.347 41.4266 218.689 40.0983C221.009 38.7681 223.509 38.0925 226.155 38.0925C230.775 38.0925 234.575 39.584 237.147 42.8461C239.624 45.9455 240.765 49.9048 240.765 54.5234C240.765 57.8043 240.096 60.7586 238.668 63.3059C237.277 65.7871 235.396 67.7274 233.02 69.0533C230.729 70.3504 228.248 71.0034 225.614 71.0034C220.99 71.0034 217.181 69.51 214.578 66.2566L214.573 66.2502ZM231.965 67.1757C233.967 66.0598 235.575 64.4188 236.789 62.2526C238.004 60.0865 238.611 57.5101 238.611 54.5234C238.611 50.2567 237.561 46.8105 235.46 44.1849C233.392 41.5592 230.291 40.2464 226.155 40.2464C223.891 40.2464 221.757 40.8207 219.755 41.9695C217.786 43.0854 216.194 44.7264 214.98 46.8926C213.766 49.0587 213.158 51.6187 213.158 54.5726C213.158 58.8393 214.192 62.2855 216.26 64.9111C218.361 67.5368 221.479 68.8496 225.614 68.8496C227.879 68.8496 229.995 68.2916 231.965 67.1757ZM225.909 63.8896C227.458 63.8896 228.511 63.3121 229.321 62.0645C230.205 60.7023 230.795 58.4198 230.795 54.9172C230.795 51.4585 230.26 48.9582 229.367 47.2509C228.964 46.481 228.496 46.0017 227.994 45.7025C227.489 45.4016 226.823 45.2064 225.909 45.2064C224.363 45.2064 223.284 45.7837 222.441 47.0422C221.561 48.4057 220.974 50.6854 220.974 54.1788C220.974 57.6305 221.524 60.1216 222.439 61.8223C222.86 62.6029 223.341 63.0903 223.849 63.3935C224.358 63.6969 225.018 63.8896 225.909 63.8896ZM220.642 45.8587C221.889 43.9879 223.645 43.0525 225.909 43.0525C228.371 43.0525 230.16 44.1192 231.275 46.2526C232.391 48.3859 232.949 51.2741 232.949 54.9172C232.949 58.5931 232.342 61.3665 231.128 63.2373C229.913 65.108 228.174 66.0434 225.909 66.0434C223.481 66.0434 221.692 64.9768 220.543 62.8434C219.394 60.7101 218.82 57.8218 218.82 54.1788C218.82 50.5028 219.427 47.7295 220.642 45.8587Z" fill="white"/>
<defs>
<linearGradient id="paint0_linear" x1="45.1461" y1="65.081" x2="169.47" y2="65.081" gradientUnits="userSpaceOnUse">
<stop stop-color="#6884A0"/>
<stop offset="1" stop-color="white" stop-opacity="0"/>
</linearGradient>
</defs>
</svg>
