<svg width="835" height="455" viewBox="0 0 835 455" fill="none" xmlns="http://www.w3.org/2000/svg">
<path d="M140.199 33.0364C140.258 32.992 140.34 32.9885 140.45 33.0244C140.554 33.0585 140.68 33.1287 140.828 33.2356C141.12 33.4469 141.492 33.7981 141.939 34.2937C142.803 35.2522 143.933 36.7341 145.246 38.7695C147.629 42.4606 150.775 48.2102 153.518 55.7661C158.098 68.1085 162.341 88.8473 154.642 110.026C154.712 109.636 154.783 109.387 154.838 109.28C154.883 109.655 154.964 110.076 155.063 110.548C155.445 112.416 156.109 114.329 156.919 116.349C160.437 125.059 166.026 133.026 172.843 141.433L172.843 141.435C173.42 143.53 173.575 145.049 173.415 145.922C172.963 148.031 172.213 149.667 171.372 150.815C167.115 156.621 161.496 159.906 156.37 162.266C155.857 162.749 155.753 162.425 156.78 161.415C157.251 159.939 157.515 159.367 157.285 159.43C157.341 160.246 158.388 161.803 159.37 164.553C159.868 165.736 160.288 167.386 160.41 169.495C160.484 171.733 159.773 173.985 158.267 175.979C153.798 179.032 148.935 177.942 146.096 175.681C147.121 174.47 148.677 173.321 150.571 172.566C152.04 173.48 153.762 174.785 155.458 176.729C155.622 176.895 155.779 177.071 155.93 177.257C157.478 179.168 158.301 182.119 157.92 185.761C156.256 190.585 153.499 193.352 151.179 194.502C151.101 194.532 150.911 194.627 150.878 194.556C150.707 194.689 150.73 195.437 150.627 196.593C150.559 199.46 151.104 203.096 150.899 207.441C150.783 212.291 148.682 217.317 144.435 220.856C137.204 225.369 129.486 225.13 123.637 224.206C117.518 221.618 109.858 222.367 102.75 223.282C92.648 224.862 83.28 228.166 75.1473 231.972C64.3978 237.04 56.2707 242.721 49.9139 248.866C37.334 261.122 35.1773 272.699 34.1193 272.491C33.7452 272.418 32.2644 260.01 45.8328 244.401C52.1065 237.126 60.5861 230.158 71.7604 224.166C80.2238 219.598 90.1819 215.577 101.254 213.421C108.38 211.825 117.051 210.819 125.68 213.862C130.985 213.892 136.213 214.431 138.654 211.785C139.784 211.34 140.316 209.138 140.586 206.799C140.756 204.137 140.177 200.697 140.214 196.415C140.154 194.685 140.424 192.465 141.357 189.945C142.341 187.434 144.081 185.567 146.317 184.587C147.477 183.236 148.446 182.935 147.698 183.312C147.86 184.34 147.677 184.551 147.654 184.337C147.652 184.314 147.651 184.288 147.652 184.258C147.235 183.656 146.28 183.039 145.071 182.171C144.703 179.912 143.872 177.471 142.789 174.546C147.037 172.059 150.338 171.144 150.466 168.56C150.138 169.114 149.996 169.42 150.031 169.748C150.108 169.763 149.933 169.378 149.727 168.62C149.242 167.326 148.07 165.247 147.247 161.877C146.699 160.424 146.918 158.163 148.17 155.39C150.15 152.775 152.005 151.717 153.223 151.856C157.677 149.399 161.596 147.581 163.301 144.51C163.589 143.979 163.797 143.766 163.715 143.856C163.681 144.041 163.934 144.814 164.356 146.23C157.693 138.162 152.094 129.697 148.558 120.093C147.659 117.674 146.905 115.122 146.435 112.418C146.318 111.731 146.221 110.991 146.16 110.199C146.177 109.679 146.212 109.016 146.282 108.213C153.905 89.7538 151.385 69.8246 148.338 57.6384C146.451 50.306 144.159 44.3309 142.595 40.3548C141.738 38.1767 141.021 36.4093 140.599 35.2227C140.375 34.5954 140.221 34.0958 140.149 33.735C140.112 33.5503 140.097 33.3998 140.103 33.2846C140.11 33.1626 140.141 33.0806 140.199 33.0364Z" fill="white"/>
<path d="M22.3532 40.4182C22.2036 40.8378 22.0717 41.2756 21.3089 42.0887C20.7443 43.0877 20.5842 43.6146 19.8692 45.3318C18.4841 48.8184 17.567 51.8446 16.0594 57.8086C13.3336 68.7934 11.0129 82.6064 10.9906 100.277C10.997 110.147 11.8447 120.697 13.9477 131.476C15.5459 139.667 17.7437 147.347 20.429 154.481C27.2362 172.722 37.212 186.735 44.7051 196.176C52.2686 205.705 57.4648 210.936 56.5855 212.204C56.1603 212.818 27.5372 201.009 10.1825 159.187C6.98783 151.434 4.42573 143.017 2.66715 134.04C0.350999 122.217 -0.325497 110.685 0.136843 99.9971C0.920722 81.1767 4.89118 66.1266 9.48964 55.2454C11.8314 49.6573 14.0887 45.7806 16.4896 42.9362C17.6183 41.5705 18.6907 40.6277 19.7594 40.069C21.8839 38.3967 22.2605 40.678 22.3532 40.4182Z" fill="white"/>
<path d="M169.815 295.968C168.657 296.336 165.887 283.139 152.251 269.851C146.802 264.506 139.334 259.49 130.098 256.766C116.18 252.623 97.9325 253.911 81.9823 264.513C75.0744 269.115 68.736 275.478 64.079 283.299C59.2941 291.266 56.2881 300.869 55.3814 311.01C54.7322 318.054 55.1191 325.324 56.3307 332.679C57.1904 337.898 58.4475 343.052 59.9686 348.05C65.4145 365.994 74.2551 382.403 83.4061 396.694C82.4637 409.303 85.5354 421.489 92.0585 429.435C92.0585 429.435 92.0585 429.435 92.0585 429.435C98.4395 437.167 107.794 441.216 116.198 442.489C126.584 443.921 135.579 441.635 141.967 437.154C146.045 434.339 148.933 430.76 150.797 427.337C155.62 418.604 155.134 411.711 155.991 411.675C155.889 411.679 159.538 417.894 155.129 429.619C153.455 434.005 150.467 438.831 145.75 442.83C138.435 448.964 127.722 452.945 115.305 451.846C105.119 451.057 93.5518 446.715 84.6311 437.015C75.9871 427.682 71.6791 413.898 73.2136 399.681C63.5814 386.19 54.3501 370.299 48.5847 352.163C46.838 346.644 45.4158 340.873 44.4555 334.931C43.1025 326.559 42.708 318.105 43.4714 309.74C44.6074 297.6 48.4012 286.116 54.3911 276.425C60.2641 266.99 67.9972 259.573 76.3745 254.359C95.6114 242.363 116.771 242.085 132.647 247.869C143.196 251.737 151.3 258.228 156.898 264.873C171.45 282.247 169.437 296.088 169.815 295.968Z" fill="white"/>
<path d="M148.091 323.652C147.201 325.182 142.14 323.713 134.589 320.101C129.293 318.039 120.856 314.331 113.922 314.352C111.417 314.43 108.991 314.666 107.736 315.775C106.817 316.216 106.039 317.334 105.337 318.826C104.948 319.652 104.589 320.581 104.257 321.527C102.653 326.655 102.877 333.223 103.069 339.11C103.94 358.475 107.173 372.293 103.984 373.343C102.03 373.986 94.2392 361.843 90.9259 340.565C89.8496 334.179 89.2283 326.031 91.3782 317.429C91.8198 315.547 92.5072 313.656 93.4606 311.832C95.1754 308.552 97.6783 305.63 100.917 303.405C105.826 300.568 110.778 300.026 114.892 300.649C125.741 302.166 134.144 307.938 139.034 311.943C145.539 317.843 148.982 322.121 148.091 323.652Z" fill="white"/>
<path d="M236.56 422.6C230.48 422.6 225.947 421.213 222.96 418.44C219.973 415.667 218.48 410.92 218.48 404.2V342.76H206.96V335.56C207.493 335.453 208.987 335.08 211.44 334.44C213.893 333.8 215.547 333.213 216.4 332.68C218.107 331.72 219.44 329.8 220.4 326.92C221.253 324.893 222.267 321.64 223.44 317.16C224.613 312.68 225.307 310.013 225.52 309.16H234.96L235.28 332.2H262V342.76H235.28V391.88C235.28 397.96 235.44 402.227 235.76 404.68C236.187 407.133 236.987 408.733 238.16 409.48C239.44 410.227 241.573 410.6 244.56 410.6C247.44 410.6 250.587 410.227 254 409.48C257.52 408.733 260.24 407.933 262.16 407.08L264.56 414.28C262 416.2 257.84 418.067 252.08 419.88C246.427 421.693 241.253 422.6 236.56 422.6Z" fill="white"/>
<path d="M274.356 376.36C274.356 366.76 276.33 358.44 280.276 351.4C284.223 344.36 289.396 339.027 295.796 335.4C302.303 331.667 309.236 329.8 316.596 329.8C330.036 329.8 340.116 334.067 346.836 342.6C353.663 351.133 357.076 362.333 357.076 376.2C357.076 385.907 355.103 394.28 351.156 401.32C347.21 408.36 341.983 413.693 335.476 417.32C329.076 420.947 322.196 422.76 314.836 422.76C301.396 422.76 291.263 418.493 284.436 409.96C277.716 401.427 274.356 390.227 274.356 376.36ZM315.796 413.64C323.156 413.64 328.81 410.6 332.756 404.52C336.703 398.44 338.676 389.427 338.676 377.48C338.676 365.64 336.863 356.253 333.236 349.32C329.61 342.387 323.796 338.92 315.796 338.92C308.436 338.92 302.73 341.96 298.676 348.04C294.73 354.12 292.756 363.133 292.756 375.08C292.756 386.92 294.623 396.307 298.356 403.24C302.09 410.173 307.903 413.64 315.796 413.64Z" fill="white"/>
<path d="M372.02 413.16L384.02 412.2V344.52L372.5 341.64V333L394.58 330.12H394.9L398.42 333V335.88L397.94 348.36H398.42C399.487 346.547 401.407 344.2 404.18 341.32C406.953 338.44 410.527 335.827 414.9 333.48C419.273 331.027 424.02 329.8 429.14 329.8C431.273 329.8 433.033 330.067 434.42 330.6V348.52C433.673 347.987 432.447 347.507 430.74 347.08C429.14 346.547 427.327 346.28 425.3 346.28C416.447 346.28 408.233 349 400.66 354.44V412.04L420.98 413.32V421H372.02V413.16Z" fill="white"/>
<path d="M445.301 413.16L457.301 412.2V344.52L445.781 341.64V333L467.861 330.12H468.181L471.701 333V335.88L471.221 348.36H471.701C472.768 346.547 474.688 344.2 477.461 341.32C480.235 338.44 483.808 335.827 488.181 333.48C492.555 331.027 497.301 329.8 502.421 329.8C504.555 329.8 506.315 330.067 507.701 330.6V348.52C506.955 347.987 505.728 347.507 504.021 347.08C502.421 346.547 500.608 346.28 498.581 346.28C489.728 346.28 481.515 349 473.941 354.44V412.04L494.261 413.32V421H445.301V413.16Z" fill="white"/>
<path d="M537.142 316.2C533.729 316.2 531.169 315.24 529.462 313.32C527.756 311.4 526.902 308.947 526.902 305.96C526.902 302.547 527.916 299.72 529.942 297.48C532.076 295.24 534.956 294.12 538.582 294.12C542.209 294.12 544.876 295.08 546.582 297C548.289 298.92 549.142 301.373 549.142 304.36C549.142 307.987 548.076 310.867 545.942 313C543.916 315.133 541.036 316.2 537.302 316.2H537.142ZM530.742 344.52L518.582 341.64V333.16L543.382 330.12H543.702L547.382 333V411.88L560.182 413.16V421H517.782V413.16L530.742 411.72V344.52Z" fill="white"/>
<path d="M581.144 344.52L569.624 341.64V333L592.504 330.12H592.984L596.344 333V339.72L596.184 343.56C600.024 340.147 605.09 337.053 611.384 334.28C617.677 331.507 623.704 330.12 629.464 330.12C636.184 330.12 641.357 331.4 644.984 333.96C648.717 336.52 651.33 340.467 652.824 345.8C654.317 351.027 655.064 358.12 655.064 367.08V411.88L666.264 413V421H628.344V413.16L638.264 411.88V366.92C638.264 360.627 637.837 355.72 636.984 352.2C636.13 348.573 634.53 345.907 632.184 344.2C629.837 342.387 626.424 341.48 621.944 341.48C618.104 341.48 613.997 342.44 609.624 344.36C605.25 346.28 601.357 348.52 597.944 351.08V411.72L608.824 413.16V421H571.064V413.16L581.144 411.72V344.52Z" fill="white"/>
<path d="M677.794 376.36C677.794 366.76 679.767 358.44 683.714 351.4C687.66 344.36 692.834 339.027 699.234 335.4C705.74 331.667 712.674 329.8 720.034 329.8C733.474 329.8 743.554 334.067 750.274 342.6C757.1 351.133 760.514 362.333 760.514 376.2C760.514 385.907 758.54 394.28 754.594 401.32C750.647 408.36 745.42 413.693 738.914 417.32C732.514 420.947 725.634 422.76 718.274 422.76C704.834 422.76 694.7 418.493 687.874 409.96C681.154 401.427 677.794 390.227 677.794 376.36ZM719.234 413.64C726.594 413.64 732.247 410.6 736.194 404.52C740.14 398.44 742.114 389.427 742.114 377.48C742.114 365.64 740.3 356.253 736.674 349.32C733.047 342.387 727.234 338.92 719.234 338.92C711.874 338.92 706.167 341.96 702.114 348.04C698.167 354.12 696.194 363.133 696.194 375.08C696.194 386.92 698.06 396.307 701.794 403.24C705.527 410.173 711.34 413.64 719.234 413.64Z" fill="white"/>
<path d="M210.8 145.52L199.28 142.64V134L222.16 131.12H222.64L226 134V140.72L225.84 144.56C229.68 141.147 234.746 138.053 241.04 135.28C247.333 132.507 253.36 131.12 259.12 131.12C265.84 131.12 271.013 132.4 274.64 134.96C278.373 137.52 280.986 141.467 282.48 146.8C283.973 152.027 284.72 159.12 284.72 168.08V212.88L295.92 214V222H258V214.16L267.92 212.88V167.92C267.92 161.627 267.493 156.72 266.64 153.2C265.786 149.573 264.186 146.907 261.84 145.2C259.493 143.387 256.08 142.48 251.6 142.48C247.76 142.48 243.653 143.44 239.28 145.36C234.906 147.28 231.013 149.52 227.6 152.08V212.72L238.48 214.16V222H200.72V214.16L210.8 212.72V145.52Z" fill="white"/>
<path d="M326.33 117.2C322.916 117.2 320.356 116.24 318.65 114.32C316.943 112.4 316.09 109.947 316.09 106.96C316.09 103.547 317.103 100.72 319.13 98.48C321.263 96.24 324.143 95.12 327.77 95.12C331.396 95.12 334.063 96.08 335.77 98C337.476 99.92 338.33 102.373 338.33 105.36C338.33 108.987 337.263 111.867 335.13 114C333.103 116.133 330.223 117.2 326.49 117.2H326.33ZM319.93 145.52L307.77 142.64V134.16L332.57 131.12H332.89L336.57 134V212.88L349.37 214.16V222H306.97V214.16L319.93 212.72V145.52Z" fill="white"/>
<path d="M353.371 133.2H390.491V140.72L379.131 142.8L395.291 188.88L402.011 209.2L407.771 189.52L423.931 142.8L413.051 140.72V133.2H445.531V140.72L437.211 142.8L406.331 223.28H392.731L360.571 142.8L353.371 140.72V133.2Z" fill="white"/>
<path d="M491.029 223.76C478.122 223.76 468.255 219.547 461.429 211.12C454.709 202.693 451.349 191.44 451.349 177.36C451.349 168.08 453.109 159.92 456.629 152.88C460.149 145.84 465.055 140.4 471.349 136.56C477.749 132.72 485.002 130.8 493.109 130.8C503.029 130.8 510.709 133.573 516.149 139.12C521.695 144.56 524.629 152.4 524.949 162.64C524.949 169.147 524.575 174.107 523.829 177.52H468.789C469.002 188.08 471.455 196.613 476.149 203.12C480.842 209.52 487.509 212.72 496.149 212.72C500.415 212.72 504.842 211.973 509.429 210.48C514.122 208.88 517.749 207.013 520.309 204.88L523.349 211.92C520.255 215.12 515.669 217.893 509.589 220.24C503.509 222.587 497.322 223.76 491.029 223.76ZM507.349 169.04C507.669 166.8 507.829 164.507 507.829 162.16C507.722 155.227 506.229 149.787 503.349 145.84C500.575 141.787 496.149 139.76 490.069 139.76C483.882 139.76 478.922 142 475.189 146.48C471.562 150.96 469.482 158.48 468.949 169.04H507.349Z" fill="white"/>
<path d="M539.02 214.16L551.02 213.2V145.52L539.5 142.64V134L561.58 131.12H561.9L565.42 134V136.88L564.94 149.36H565.42C566.486 147.547 568.406 145.2 571.18 142.32C573.953 139.44 577.526 136.827 581.9 134.48C586.273 132.027 591.02 130.8 596.14 130.8C598.273 130.8 600.033 131.067 601.42 131.6V149.52C600.673 148.987 599.446 148.507 597.74 148.08C596.14 147.547 594.326 147.28 592.3 147.28C583.446 147.28 575.233 150 567.66 155.44V213.04L587.98 214.32V222H539.02V214.16Z" fill="white"/>
<path d="M626.861 209.2C627.928 210.8 630.168 212.24 633.581 213.52C637.101 214.8 640.781 215.44 644.621 215.44C650.701 215.44 655.181 214.267 658.061 211.92C660.941 209.573 662.381 206.32 662.381 202.16C662.381 199.28 661.474 196.773 659.661 194.64C657.848 192.507 655.288 190.64 651.981 189.04C648.781 187.333 644.141 185.307 638.061 182.96C629.848 179.867 623.821 176.187 619.981 171.92C616.248 167.547 614.381 161.84 614.381 154.8C614.381 150.107 615.768 146 618.541 142.48C621.421 138.96 625.314 136.24 630.221 134.32C635.234 132.293 640.781 131.28 646.861 131.28C651.768 131.28 656.034 131.653 659.661 132.4C663.394 133.147 666.381 133.893 668.621 134.64C670.861 135.387 672.354 135.867 673.101 136.08V155.92H663.341L660.141 144.08C659.501 142.8 657.794 141.733 655.021 140.88C652.248 139.92 649.154 139.44 645.741 139.44C640.941 139.44 637.048 140.507 634.061 142.64C631.181 144.773 629.741 147.653 629.741 151.28C629.741 154.48 630.488 157.147 631.981 159.28C633.581 161.307 635.554 162.96 637.901 164.24C640.248 165.52 643.448 167.013 647.501 168.72L650.701 170C656.674 172.347 661.528 174.587 665.261 176.72C668.994 178.853 672.088 181.68 674.541 185.2C677.101 188.613 678.381 192.827 678.381 197.84C678.381 205.733 675.288 212.027 669.101 216.72C663.021 221.413 654.648 223.76 643.981 223.76C638.754 223.76 633.261 223.067 627.501 221.68C621.848 220.187 617.208 218.693 613.581 217.2V196.72H623.981L626.861 209.2Z" fill="white"/>
<path d="M692.762 177.36C692.762 167.76 694.736 159.44 698.682 152.4C702.629 145.36 707.802 140.027 714.202 136.4C720.709 132.667 727.642 130.8 735.002 130.8C748.442 130.8 758.522 135.067 765.242 143.6C772.069 152.133 775.482 163.333 775.482 177.2C775.482 186.907 773.509 195.28 769.562 202.32C765.616 209.36 760.389 214.693 753.882 218.32C747.482 221.947 740.602 223.76 733.242 223.76C719.802 223.76 709.669 219.493 702.842 210.96C696.122 202.427 692.762 191.227 692.762 177.36ZM734.202 214.64C741.562 214.64 747.216 211.6 751.162 205.52C755.109 199.44 757.082 190.427 757.082 178.48C757.082 166.64 755.269 157.253 751.642 150.32C748.016 143.387 742.202 139.92 734.202 139.92C726.842 139.92 721.136 142.96 717.082 149.04C713.136 155.12 711.162 164.133 711.162 176.08C711.162 187.92 713.029 197.307 716.762 204.24C720.496 211.173 726.309 214.64 734.202 214.64Z" fill="white"/>
</svg>
